<svg width="24" height="18" viewBox="0 0 24 18" fill="none" xmlns="http://www.w3.org/2000/svg">
<path d="M22.65 4.3875C22.2 3.9375 21.6 3.675 20.9625 3.675H18.225V2.2125C18.225 1.8 18.075 0.824997 16.65 0.824997H7.275C5.925 0.824997 5.775 1.8 5.775 2.2125V3.675H3.0375C1.725 3.675 0.637501 4.7625 0.637501 6.075V14.775C0.637501 16.0875 1.725 17.175 3.0375 17.175H20.925C22.2375 17.175 23.325 16.0875 23.325 14.775V6.075C23.3625 5.4375 23.1 4.8375 22.65 4.3875ZM21.6375 14.775C21.6375 15.15 21.3375 15.4875 20.925 15.4875H3.0375C2.6625 15.4875 2.325 15.1875 2.325 14.775V6.075C2.325 5.7 2.625 5.3625 3.0375 5.3625H6.225C6.9 5.3625 7.4625 4.8 7.4625 4.125V2.5125H16.5V4.125C16.5 4.8 17.0625 5.3625 17.7375 5.3625H20.9625C21.15 5.3625 21.3375 5.4375 21.45 5.5875C21.6 5.7375 21.6375 5.8875 21.6375 6.075V14.775Z" fill="#7209B7"/>
<path d="M11.85 5.8125C9.9 5.8125 8.325 7.3875 8.325 9.375C8.325 11.325 9.8625 12.8625 11.85 12.8625C13.8 12.8625 15.375 11.2875 15.375 9.375C15.375 7.4625 13.7625 5.8125 11.85 5.8125ZM11.85 11.175C10.8 11.175 10.0125 10.3875 10.0125 9.375C10.0125 8.3625 10.8375 7.5 11.85 7.5C12.8625 7.5 13.6875 8.3625 13.6875 9.375C13.6875 10.3875 12.8625 11.175 11.85 11.175Z" fill="#7209B7"/>
<path d="M5.175 6.4875H4.3125C3.8625 6.4875 3.45 6.8625 3.45 7.35C3.45 7.8375 3.825 8.2125 4.3125 8.2125H5.175C5.625 8.2125 6.0375 7.8375 6.0375 7.35C6.0375 6.8625 5.6625 6.4875 5.175 6.4875Z" fill="#7209B7"/>
</svg>
